<svg width="62.94" height="43.441" viewBox="0 0 62.94 43.441" xmlns="http://www.w3.org/2000/svg"><g id="svgGroup" stroke-linecap="round" fill-rule="evenodd" font-size="9pt"  stroke-width="0.25mm"  style="stroke-width:0.25mm;"><path d="M 62.04 2.16 L 60.3 6.96 Q 58.44 6.06 56.49 5.52 Q 54.814 5.056 52.629 4.991 A 24.423 24.423 0 0 0 51.9 4.98 Q 48.06 4.98 45.03 6.96 A 12.7 12.7 0 0 0 41.211 10.909 A 16.187 16.187 0 0 0 40.26 12.66 Q 38.656 16.089 38.531 20.845 A 30.956 30.956 0 0 0 38.52 21.66 A 25.118 25.118 0 0 0 38.889 26.073 A 18.558 18.558 0 0 0 40.23 30.48 A 15.406 15.406 0 0 0 42.382 33.977 A 12.854 12.854 0 0 0 44.97 36.36 A 11.822 11.822 0 0 0 51.657 38.458 A 14.336 14.336 0 0 0 51.9 38.46 Q 54.526 38.46 56.529 37.886 A 11.568 11.568 0 0 0 57 37.74 Q 59.16 37.02 61.2 35.88 L 62.94 40.62 A 22.537 22.537 0 0 1 60.243 41.847 A 28.736 28.736 0 0 1 57.87 42.63 Q 55.204 43.388 51.723 43.437 A 34.451 34.451 0 0 1 51.24 43.44 Q 45.78 43.44 41.58 40.83 A 17.16 17.16 0 0 1 35.654 34.563 A 20.95 20.95 0 0 1 35.04 33.39 A 22.567 22.567 0 0 1 33.18 27.56 Q 32.715 25 32.7 22.088 A 37.69 37.69 0 0 1 32.7 21.9 Q 32.7 15.48 35.07 10.53 A 18.981 18.981 0 0 1 39.257 4.752 A 17.916 17.916 0 0 1 41.79 2.79 A 17.623 17.623 0 0 1 49.398 0.143 A 22.375 22.375 0 0 1 51.96 0 A 27.383 27.383 0 0 1 54.995 0.161 A 21.12 21.12 0 0 1 57.42 0.57 A 22.934 22.934 0 0 1 61.905 2.097 A 21.354 21.354 0 0 1 62.04 2.16 Z M 14.28 34.26 L 9.18 34.26 L 9.18 24.48 L 0 24.48 L 0 19.8 L 9.18 19.8 L 9.18 10.02 L 14.28 10.02 L 14.28 19.8 L 23.4 19.8 L 23.4 24.48 L 14.28 24.48 L 14.28 34.26 Z" vector-effect="non-scaling-stroke"/></g></svg>